<svg width="27" height="26" viewBox="0 0 27 26" fill="none" xmlns="http://www.w3.org/2000/svg">
<path d="M1 23.7392C0.999822 22.1048 1.39189 20.4947 2.14259 19.047C2.89329 17.5992 3.98021 16.3571 5.31016 15.4272C6.64011 14.4972 8.17339 13.9071 9.77854 13.7075C11.3837 13.5078 13.0128 13.7046 14.5261 14.281M25.2223 18.2136C25.7203 17.7104 26 17.0278 26 16.3161C26 15.6045 25.7203 14.9219 25.2223 14.4187C24.7244 13.9154 24.049 13.6327 23.3448 13.6327C22.6406 13.6327 21.9653 13.9154 21.4673 14.4187L16.4549 19.487C16.1577 19.7872 15.9402 20.1582 15.8224 20.5658L14.7761 24.1915C14.7448 24.3002 14.7429 24.4154 14.7707 24.5251C14.7985 24.6348 14.855 24.7349 14.9342 24.815C15.0134 24.8951 15.1125 24.9521 15.221 24.9802C15.3296 25.0083 15.4436 25.0064 15.5511 24.9747L19.1386 23.9174C19.5419 23.7983 19.9091 23.5785 20.2061 23.2781L25.2223 18.2136ZM17.2499 7.31645C17.2499 10.8049 14.4517 13.6329 10.9999 13.6329C7.54817 13.6329 4.74997 10.8049 4.74997 7.31645C4.74997 3.82797 7.54817 1 10.9999 1C14.4517 1 17.2499 3.82797 17.2499 7.31645Z" stroke="#BC804D" stroke-width="2" stroke-linecap="round" stroke-linejoin="round"/>
</svg>
