<svg width="27" height="28" viewBox="0 0 27 28" fill="none" xmlns="http://www.w3.org/2000/svg">
<path d="M17.9219 13.2825C17.6874 13.5171 17.5557 13.8351 17.5557 14.1667C17.5557 14.4983 17.6874 14.8163 17.9219 15.0508L20.8931 18.0233C21.1276 18.2577 21.4456 18.3894 21.7772 18.3894C22.1088 18.3894 22.4269 18.2577 22.6614 18.0233L25.6339 15.0508C25.8683 14.8163 26 14.4983 26 14.1667C26 13.8351 25.8683 13.5171 25.6339 13.2825L22.6614 10.31C22.4269 10.0756 22.1088 9.94391 21.7772 9.94391C21.4456 9.94391 21.1276 10.0756 20.8931 10.31L17.9219 13.2825Z" stroke="#BC804D" stroke-width="2" stroke-linecap="round" stroke-linejoin="round"/>
<path d="M1.36614 13.2825C1.1317 13.5171 1 13.8351 1 14.1667C1 14.4983 1.1317 14.8163 1.36614 15.0508L4.33864 18.0233C4.57315 18.2577 4.89117 18.3894 5.22276 18.3894C5.55436 18.3894 5.87238 18.2577 6.10688 18.0233L9.07939 15.0508C9.31383 14.8163 9.44553 14.4983 9.44553 14.1667C9.44553 13.8351 9.31383 13.5171 9.07939 13.2825L6.10688 10.31C5.87238 10.0756 5.55436 9.94391 5.22276 9.94391C4.89117 9.94391 4.57315 10.0756 4.33864 10.31L1.36614 13.2825Z" stroke="#BC804D" stroke-width="2" stroke-linecap="round" stroke-linejoin="round"/>
<path d="M9.64338 21.5598C9.52711 21.6759 9.43487 21.8138 9.37194 21.9657C9.309 22.1175 9.27661 22.2802 9.27661 22.4445C9.27661 22.6089 9.309 22.7716 9.37194 22.9234C9.43487 23.0752 9.52711 23.2131 9.64338 23.3293L12.6159 26.3005C12.8504 26.535 13.1684 26.6667 13.5 26.6667C13.8316 26.6667 14.1496 26.535 14.3841 26.3005L17.3566 23.3293C17.4729 23.2131 17.5651 23.0752 17.6281 22.9234C17.691 22.7716 17.7234 22.6089 17.7234 22.4445C17.7234 22.2802 17.691 22.1175 17.6281 21.9657C17.5651 21.8138 17.4729 21.6759 17.3566 21.5598L14.3841 18.5885C14.1496 18.3541 13.8316 18.2224 13.5 18.2224C13.1684 18.2224 12.8504 18.3541 12.6159 18.5885L9.64338 21.5598Z" stroke="#BC804D" stroke-width="2" stroke-linecap="round" stroke-linejoin="round"/>
<path d="M9.64338 5.00531C9.40894 5.23982 9.27724 5.55784 9.27724 5.88943C9.27724 6.22103 9.40894 6.53905 9.64338 6.77356L12.6159 9.74481C12.8504 9.97925 13.1684 10.1109 13.5 10.1109C13.8316 10.1109 14.1496 9.97925 14.3841 9.74481L17.3566 6.77356C17.5911 6.53905 17.7228 6.22103 17.7228 5.88943C17.7228 5.55784 17.5911 5.23982 17.3566 5.00531L14.3841 2.03281C14.1496 1.79837 13.8316 1.66667 13.5 1.66667C13.1684 1.66667 12.8504 1.79837 12.6159 2.03281L9.64338 5.00531Z" stroke="#BC804D" stroke-width="2" stroke-linecap="round" stroke-linejoin="round"/>
</svg>
