<svg width="27" height="28" viewBox="0 0 27 28" fill="none" xmlns="http://www.w3.org/2000/svg">
<path d="M14.2357 2.06602C13.7669 1.59703 13.1309 1.33349 12.4678 1.33334H3.50061C2.83741 1.33334 2.20137 1.5968 1.73241 2.06575C1.26346 2.53471 1 3.17075 1 3.83395V12.8011C1.00014 13.4643 1.26369 14.1002 1.73268 14.5691L12.6153 25.4517C13.1836 26.0164 13.9522 26.3333 14.7533 26.3333C15.5545 26.3333 16.3231 26.0164 16.8914 25.4517L25.1184 17.2247C25.6831 16.6564 26 15.8878 26 15.0867C26 14.2856 25.6831 13.517 25.1184 12.9487L14.2357 2.06602Z" stroke="#BC804D" stroke-width="2" stroke-linecap="round" stroke-linejoin="round"/>
<path d="M7.87667 8.83517C8.22194 8.83517 8.50183 8.55528 8.50183 8.21002C8.50183 7.86475 8.22194 7.58486 7.87667 7.58486C7.53141 7.58486 7.25152 7.86475 7.25152 8.21002C7.25152 8.55528 7.53141 8.83517 7.87667 8.83517Z" stroke="#BC804D" stroke-width="2" stroke-linecap="round" stroke-linejoin="round"/>
</svg>
