<svg width="23" height="27" viewBox="0 0 23 27" fill="none" xmlns="http://www.w3.org/2000/svg">
<path d="M8.875 14.75H14.125M11.5 6V14.75M16.75 8.5V6H6.25V8.5M1 22.875V4.125C1 3.2962 1.3457 2.50134 1.96106 1.91529C2.57641 1.32924 3.41101 1 4.28125 1H20.6875C21.0356 1 21.3694 1.1317 21.6156 1.36612C21.8617 1.60054 22 1.91848 22 2.25V24.75C22 25.0815 21.8617 25.3995 21.6156 25.6339C21.3694 25.8683 21.0356 26 20.6875 26H4.28125C3.41101 26 2.57641 25.6708 1.96106 25.0847C1.3457 24.4987 1 23.7038 1 22.875ZM1 22.875C1 22.0462 1.3457 21.2513 1.96106 20.6653C2.57641 20.0792 3.41101 19.75 4.28125 19.75H22" stroke="#BC804D" stroke-width="2" stroke-linecap="round" stroke-linejoin="round"/>
</svg>
