<svg width="25" height="28" viewBox="0 0 25 28" fill="none" xmlns="http://www.w3.org/2000/svg">
<path d="M20.8333 11.8862V8.58829C20.8333 7.37403 19.9006 6.38967 18.75 6.38967H6.24999C5.0994 6.38967 4.16666 7.37403 4.16666 8.58829V11.8862M20.8333 11.8862V21.78C20.8333 22.9943 19.9006 23.9786 18.75 23.9786H6.24999C5.0994 23.9786 4.16666 22.9943 4.16666 21.78V11.8862M20.8333 11.8862H4.16666M8.33332 4.19106V8.58829M16.6667 4.19106V8.58829" stroke="#BC804D" stroke-linecap="round"/>
<path d="M8.85417 14.0848H6.77083C6.48319 14.0848 6.25 14.3309 6.25 14.6345V16.8331C6.25 17.1367 6.48319 17.3828 6.77083 17.3828H8.85417C9.14181 17.3828 9.375 17.1367 9.375 16.8331V14.6345C9.375 14.3309 9.14181 14.0848 8.85417 14.0848Z" fill="#BC804D"/>
<path d="M13.5417 14.0848H11.4583C11.1707 14.0848 10.9375 14.3309 10.9375 14.6345V16.8331C10.9375 17.1367 11.1707 17.3828 11.4583 17.3828H13.5417C13.8293 17.3828 14.0625 17.1367 14.0625 16.8331V14.6345C14.0625 14.3309 13.8293 14.0848 13.5417 14.0848Z" fill="#BC804D"/>
<path d="M18.2292 14.0848H16.1458C15.8582 14.0848 15.625 14.3309 15.625 14.6345V16.8331C15.625 17.1367 15.8582 17.3828 16.1458 17.3828H18.2292C18.5168 17.3828 18.75 17.1367 18.75 16.8331V14.6345C18.75 14.3309 18.5168 14.0848 18.2292 14.0848Z" fill="#BC804D"/>
</svg>
