<svg width="25" height="25" viewBox="0 0 25 25" fill="none" xmlns="http://www.w3.org/2000/svg">
<path d="M23.0529 3.78696C21.7962 2.47529 20.124 1.75287 18.3444 1.75287C16.5648 1.75287 14.8926 2.47524 13.6359 3.78696L12.5837 4.88515L11.3642 3.61235C10.1075 2.30063 8.4353 1.57822 6.65571 1.57822C4.87612 1.57822 3.20381 2.30063 1.94702 3.61235C0.691553 4.92285 4.88281e-05 6.65981 0 8.50322C0 10.3466 0.691455 12.0835 1.94692 13.3939L10.8296 22.6751C11.2842 23.1497 11.9218 23.4218 12.579 23.4218C13.2361 23.4218 13.8737 23.1497 14.3283 22.6751L23.0529 13.5687C24.3085 12.2582 25 10.5213 25 8.67787C25 6.83442 24.3085 5.0975 23.0529 3.78696ZM22.5003 13.0393L13.7757 22.1457C13.4647 22.4703 13.0286 22.6564 12.579 22.6564C12.1293 22.6564 11.6932 22.4703 11.3824 22.1458L2.49971 12.8646C1.3813 11.6973 0.765332 10.1484 0.765332 8.50322C0.765332 6.85805 1.3813 5.30912 2.49971 4.14179C3.61079 2.98212 5.08677 2.34355 6.65571 2.34355C8.22466 2.34355 9.70059 2.98217 10.8116 4.14179L12.3074 5.70302C12.3083 5.704 12.3094 5.70488 12.3104 5.7058C12.3113 5.70678 12.3122 5.70786 12.3131 5.70888L13.2001 6.59589C13.2748 6.6706 13.3728 6.708 13.4707 6.708C13.5686 6.708 13.6665 6.67065 13.7412 6.59589C13.8906 6.44643 13.8906 6.20414 13.7412 6.05478L13.119 5.43266L14.1884 4.3165C15.2994 3.15693 16.7754 2.5183 18.3443 2.5183C19.9133 2.5183 21.3892 3.15693 22.5002 4.3165C23.6187 5.48383 24.2346 7.03276 24.2346 8.67792C24.2347 10.323 23.6187 11.8719 22.5003 13.0393Z" fill="#CBB89D"/>
<path d="M21.9477 4.84585C20.9824 3.83833 19.7027 3.28349 18.3444 3.28349C18.1331 3.28349 17.9617 3.45483 17.9617 3.66616C17.9617 3.87749 18.1331 4.04882 18.3444 4.04882C19.4921 4.04882 20.5755 4.51992 21.3951 5.37529C22.2392 6.2563 22.7041 7.4292 22.7041 8.67783C22.7041 9.09477 22.6521 9.50737 22.5496 9.90425C22.4967 10.1089 22.6198 10.3176 22.8244 10.3705C22.8565 10.3788 22.8887 10.3827 22.9204 10.3827C23.0906 10.3827 23.2461 10.2682 23.2906 10.0957C23.4092 9.63633 23.4694 9.15927 23.4694 8.67778C23.4694 7.23095 22.929 5.87011 21.9477 4.84585Z" fill="#CBB89D"/>
</svg>
