<svg width="40" height="41" viewBox="0 0 40 41" fill="none" xmlns="http://www.w3.org/2000/svg">
<path opacity="0.8" fill-rule="evenodd" clip-rule="evenodd" d="M20 2.41113C20.6903 2.41113 21.25 2.97078 21.25 3.66113V6.99447C21.25 7.68482 20.6903 8.24447 20 8.24447C19.3096 8.24447 18.75 7.68482 18.75 6.99447V3.66113C18.75 2.97078 19.3096 2.41113 20 2.41113ZM2.08331 20.3278C2.08331 19.6375 2.64296 19.0778 3.33331 19.0778H6.66665C7.357 19.0778 7.91665 19.6375 7.91665 20.3278C7.91665 21.0181 7.357 21.5778 6.66665 21.5778H3.33331C2.64296 21.5778 2.08331 21.0181 2.08331 20.3278ZM32.0833 20.3278C32.0833 19.6375 32.643 19.0778 33.3333 19.0778H36.6666C37.357 19.0778 37.9166 19.6375 37.9166 20.3278C37.9166 21.0181 37.357 21.5778 36.6666 21.5778H33.3333C32.643 21.5778 32.0833 21.0181 32.0833 20.3278ZM20 32.4111C20.6903 32.4111 21.25 32.9708 21.25 33.6611V36.9945C21.25 37.6848 20.6903 38.2445 20 38.2445C19.3096 38.2445 18.75 37.6848 18.75 36.9945V33.6611C18.75 32.9708 19.3096 32.4111 20 32.4111Z" fill="#BC804D"/>
<g opacity="0.5">
<path d="M9.11611 9.4439C9.60426 8.95575 10.3957 8.95575 10.8839 9.4439L11.456 10.016C11.9441 10.5042 11.9441 11.2956 11.456 11.7838C10.9678 12.2719 10.1764 12.2719 9.68821 11.7838L9.11611 11.2117C8.62796 10.7235 8.62796 9.93205 9.11611 9.4439Z" fill="#BC804D"/>
<path d="M30.8838 9.4439C31.372 9.93205 31.372 10.7235 30.8838 11.2117L30.3118 11.7838C29.8236 12.2719 29.0321 12.2719 28.544 11.7838C28.0558 11.2956 28.0558 10.5042 28.544 10.016L29.1161 9.4439C29.6043 8.95575 30.3956 8.95575 30.8838 9.4439Z" fill="#BC804D"/>
<path d="M11.4556 28.8721C11.9438 29.3603 11.9438 30.1518 11.4556 30.64L10.8839 31.2116C10.3957 31.6998 9.60426 31.6998 9.11611 31.2116C8.62796 30.7235 8.62796 29.9321 9.11611 29.444L9.68786 28.8721C10.176 28.384 10.9675 28.384 11.4556 28.8721Z" fill="#BC804D"/>
<path d="M28.5443 28.8721C29.0325 28.384 29.824 28.384 30.3122 28.8721L30.8838 29.444C31.372 29.9321 31.372 30.7235 30.8838 31.2116C30.3957 31.6998 29.6043 31.6998 29.1162 31.2116L28.5443 30.64C28.0562 30.1518 28.0562 29.3603 28.5443 28.8721Z" fill="#BC804D"/>
</g>
<path d="M11.6667 18.7603C11.6667 22.9974 15.0162 25.2555 17.4682 27.2765C18.3334 27.9896 19.1667 28.6611 20 28.6611C20.8334 28.6611 21.6667 27.9896 22.5319 27.2765C24.9839 25.2555 28.3334 22.9974 28.3334 18.7603C28.3334 14.5231 23.7499 11.5181 20 15.5917C16.2502 11.5181 11.6667 14.5231 11.6667 18.7603Z" fill="#BC804D"/>
</svg>
