<svg width="20" height="22" viewBox="0 0 20 22" fill="none" xmlns="http://www.w3.org/2000/svg">
<path d="M18.125 7.66629H11.25V3.70878C11.2489 2.61634 10.4102 1.73115 9.375 1.73003H1.875C0.839844 1.73115 0.00106812 2.61634 0 3.70878V9.4779C0.0392151 10.5027 0.54306 11.4452 1.35406 12.0106C1.88873 12.4357 4.26529 14.2621 5.625 14.2621C6.47873 14.2621 7.73224 13.5462 8.75 12.8504V15.4142C8.78922 16.439 9.29306 17.3815 10.1041 17.9469C10.6387 18.372 13.0153 20.1984 14.375 20.1984C15.7347 20.1984 18.1113 18.372 18.6459 17.9469C19.4568 17.3815 19.9606 16.439 20 15.4142V9.64505C19.9989 8.55261 19.1602 7.66742 18.125 7.66629ZM5.625 12.943C4.91287 12.943 3.125 11.7699 2.0813 10.9372C2.06131 10.9212 2.04041 10.9067 2.01874 10.8937C1.5741 10.5674 1.29196 10.0476 1.25 9.4779V3.70878C1.25 3.34453 1.52985 3.0492 1.875 3.0492H9.375C9.72015 3.0492 10 3.34453 10 3.70878V7.77934C9.98993 7.78304 9.98062 7.789 9.97055 7.79319C9.89334 7.82298 9.81812 7.85824 9.74533 7.8985C9.74243 7.90043 9.73877 7.90172 9.73526 7.90382C9.66141 7.94665 9.59045 7.9948 9.52286 8.04794C9.50745 8.05937 9.49158 8.07129 9.47754 8.08353C9.41147 8.13699 9.34891 8.1948 9.29001 8.25696C9.28284 8.26485 9.27658 8.27306 9.26971 8.28063C9.21707 8.33925 9.16779 8.40124 9.12216 8.46598C9.11194 8.48063 9.10156 8.49448 9.09088 8.50929C9.04327 8.58047 9.00009 8.65519 8.96194 8.73248C8.95401 8.74794 8.94745 8.76389 8.94028 8.77934C8.90656 8.85181 8.87711 8.92637 8.85223 9.00253C8.84811 9.0151 8.84308 9.02701 8.83942 9.03957C8.81348 9.1254 8.79333 9.213 8.77899 9.30173C8.77563 9.32218 8.77289 9.34231 8.76999 9.36276C8.75702 9.45616 8.75031 9.55053 8.75 9.64505V11.2575C7.38556 12.2739 6.15097 12.943 5.625 12.943ZM18.75 15.4142C18.7079 15.9841 18.4253 16.5039 17.9803 16.83C17.9587 16.843 17.9378 16.8575 17.9178 16.8734C16.875 17.7061 15.0871 18.8792 14.375 18.8792C13.6629 18.8792 11.875 17.7061 10.8313 16.8734C10.8113 16.8575 10.7904 16.843 10.7687 16.83C10.3241 16.5037 10.042 15.9839 10 15.4142V9.64505C10 9.2808 10.2798 8.98547 10.625 8.98547H18.125C18.4702 8.98547 18.75 9.2808 18.75 9.64505V15.4142Z" fill="#BC804D"/>
<path d="M16.25 13.6092H12.5C12.1548 13.6092 11.875 13.9045 11.875 14.2688C11.875 15.7259 12.9942 16.9071 14.375 16.9071C15.7558 16.9071 16.875 15.7259 16.875 14.2688C16.875 13.9045 16.5952 13.6092 16.25 13.6092ZM14.375 15.5879C13.9285 15.5878 13.5161 15.3364 13.2928 14.9283H15.4572C15.2339 15.3364 14.8215 15.5878 14.375 15.5879Z" fill="#BC804D"/>
<path d="M5.625 7.00671C4.245 7.00832 3.12653 8.18869 3.125 9.64506C3.125 10.0093 3.40485 10.3046 3.75 10.3046H7.5C7.84515 10.3046 8.125 10.0093 8.125 9.64506C8.12347 8.18869 7.005 7.00832 5.625 7.00671ZM4.54285 8.98547C4.76624 8.57774 5.17868 8.32653 5.625 8.32653C6.07132 8.32653 6.48376 8.57774 6.70715 8.98547H4.54285Z" fill="#BC804D"/>
<path d="M13.125 12.2834C13.4152 12.2844 13.6679 12.0742 13.7349 11.7763C13.802 11.4782 13.6659 11.1707 13.4062 11.0338L12.1562 10.3742C11.8475 10.2103 11.4713 10.3415 11.3159 10.6674C11.1606 10.9932 11.2849 11.3903 11.5938 11.5542L12.8438 12.2138C12.9311 12.26 13.0273 12.2839 13.125 12.2834Z" fill="#BC804D"/>
<path d="M16.5953 10.3742L15.3453 11.0338C15.0366 11.1968 14.9113 11.5929 15.0658 11.9188C15.2202 12.2446 15.5955 12.3768 15.9044 12.2138L17.1544 11.5542C17.4631 11.3913 17.5883 10.9951 17.4339 10.6692C17.2795 10.3434 16.9041 10.2112 16.5953 10.3742Z" fill="#BC804D"/>
<path d="M3.40438 6.27756L4.65438 5.61797C4.96307 5.45501 5.08834 5.05887 4.93392 4.73294C4.77951 4.40718 4.40414 4.27497 4.0953 4.43793L2.8453 5.09752C2.53662 5.26048 2.41134 5.65662 2.56576 5.98255C2.72018 6.30832 3.09555 6.44052 3.40438 6.27756Z" fill="#BC804D"/>
<path d="M8.40438 5.09752L7.15438 4.43793C6.84555 4.27497 6.47018 4.40718 6.31576 4.73294C6.16134 5.05887 6.28662 5.45501 6.5953 5.61797L7.8453 6.27756C8.15414 6.44052 8.52951 6.30832 8.68392 5.98255C8.83834 5.65662 8.71307 5.26048 8.40438 5.09752Z" fill="#BC804D"/>
</svg>
