<svg width="26" height="22" viewBox="0 0 26 22" fill="none" xmlns="http://www.w3.org/2000/svg">
<path d="M24.5751 1.75508C24.5734 1.75508 24.5718 1.75508 24.5702 1.75508H22.9234V1.0941C22.9323 0.832479 22.788 0.597359 22.5737 0.52428C21.4304 0.172846 20.2532 -0.00337009 19.0713 4.88065e-05C17.1282 4.88065e-05 14.4808 0.512884 12.5231 2.84913C10.5801 0.490091 7.91318 4.88065e-05 5.97496 4.88065e-05C4.79308 -0.00337009 3.61582 0.172846 2.47256 0.52428C2.25822 0.597359 2.11395 0.832479 2.12281 1.0941V1.74938H0.485769C0.217503 1.74938 0 2.00452 0 2.3192V20.5191C0 20.8338 0.217503 21.089 0.485769 21.089C0.5692 21.0887 0.651173 21.0632 0.723796 21.0149C0.772373 20.9864 5.63006 17.8695 12.4114 19.8752H12.4843H12.528C12.5667 19.8807 12.6058 19.8807 12.6446 19.8752C19.4453 17.8524 24.303 20.9636 24.3322 21.0149C24.4825 21.1167 24.6677 21.1167 24.8179 21.0149C24.9673 20.9137 25.0598 20.7272 25.0608 20.5248V2.3249C25.0608 2.01022 24.8434 1.75508 24.5751 1.75508ZM0.971538 19.6131V2.89472H2.13253V17.1857C2.12949 17.5004 2.3445 17.7584 2.61277 17.7619C2.639 17.7623 2.66523 17.7602 2.69116 17.7555C3.6961 17.5755 4.71069 17.4803 5.72722 17.4706C7.13534 17.442 8.53757 17.6904 9.87569 18.2057C6.8539 17.777 3.78882 18.2615 0.971538 19.6131ZM5.72722 16.3367C4.84366 16.339 3.96114 16.4056 3.08463 16.5361V1.54425C4.03043 1.29709 4.99626 1.17095 5.96524 1.16817C7.78202 1.16817 10.2886 1.65821 12.0276 3.96027L12.0422 18.1544C11.0318 17.3794 9.05959 16.3367 5.72722 16.3367ZM13.0138 3.96027C14.7528 1.68101 17.2594 1.16817 19.0762 1.16817C20.0451 1.17152 21.0109 1.29759 21.9568 1.54425V16.5361C21.0852 16.4044 20.2075 16.3359 19.3288 16.331C16.0158 16.331 14.0387 17.3738 13.0138 18.1487V3.96027ZM24.0844 19.6131C21.2611 18.2578 18.189 17.7733 15.1609 18.2057C16.5053 17.6886 17.9142 17.4401 19.3288 17.4706C20.3517 17.4773 21.3728 17.5706 22.3842 17.7498C22.6495 17.7971 22.8972 17.5831 22.9374 17.272C22.9414 17.2416 22.9432 17.2108 22.9429 17.18V2.89472H24.1039L24.0844 19.6131Z" fill="#BC804D"/>
</svg>
