<svg width="21" height="23" viewBox="0 0 21 23" fill="none" xmlns="http://www.w3.org/2000/svg">
<path d="M10.5 5.18202L10.0272 5.66229C10.0301 5.6655 10.0331 5.66868 10.0361 5.67183L10.5 5.18202ZM6.12553 15.266C5.84568 15.023 5.43211 15.0653 5.2018 15.3607C4.97148 15.656 5.01163 16.0925 5.29148 16.3355L6.12553 15.266ZM2.04924 12.4871C2.22315 12.8226 2.62191 12.9459 2.9399 12.7623C3.25789 12.5788 3.37467 12.158 3.20076 11.8224L2.04924 12.4871ZM11.7861 7.518C12.0424 7.78842 12.4579 7.78833 12.7141 7.51782C12.9704 7.24731 12.9703 6.8088 12.7139 6.53838L11.7861 7.518ZM2.40625 8.54001C2.40625 6.55385 3.4697 4.88827 4.92132 4.18801C6.33156 3.50772 8.22645 3.68788 10.0272 5.66229L10.9728 4.70175C8.83619 2.35902 6.35608 1.97292 4.37567 2.92826C2.43662 3.86364 1.09375 6.03563 1.09375 8.54001H2.40625ZM7.43524 18.1092C7.88344 18.4821 8.36461 18.8797 8.8522 19.1804C9.33966 19.481 9.8959 19.7253 10.5 19.7253V18.3402C10.2291 18.3402 9.91034 18.2287 9.5144 17.9845C9.11864 17.7404 8.70807 17.4044 8.24779 17.0214L7.43524 18.1092ZM13.5648 18.1092C14.8131 17.0706 16.4087 15.8807 17.6604 14.3933C18.9346 12.8792 19.9063 11.0014 19.9063 8.54001H18.5938C18.5938 10.5691 17.807 12.1331 16.679 13.4736C15.5285 14.8407 14.0784 15.9181 12.7523 17.0214L13.5648 18.1092ZM19.9063 8.54001C19.9063 6.03563 18.5634 3.86364 16.6243 2.92826C14.6439 1.97292 12.1638 2.35902 10.0272 4.70175L10.9728 5.66229C12.7735 3.68788 14.6684 3.50772 16.0787 4.18801C17.5303 4.88827 18.5938 6.55385 18.5938 8.54001H19.9063ZM12.7523 17.0214C12.2919 17.4044 11.8814 17.7404 11.4856 17.9845C11.0897 18.2287 10.7709 18.3402 10.5 18.3402V19.7253C11.1041 19.7253 11.6603 19.481 12.1478 19.1804C12.6354 18.8797 13.1165 18.4821 13.5648 18.1092L12.7523 17.0214ZM8.24779 17.0214C7.55137 16.4421 6.84363 15.8897 6.12553 15.266L5.29148 16.3355C6.01797 16.9665 6.78538 17.5686 7.43524 18.1092L8.24779 17.0214ZM3.20076 11.8224C2.7097 10.8749 2.40625 9.80158 2.40625 8.54001H1.09375C1.09375 10.0521 1.46121 11.3524 2.04924 12.4871L3.20076 11.8224ZM10.0361 5.67183L11.7861 7.518L12.7139 6.53838L10.9639 4.69222L10.0361 5.67183Z" fill="#BC804D"/>
</svg>
