<svg width="27" height="27" viewBox="0 0 27 27" fill="none" xmlns="http://www.w3.org/2000/svg">
<path d="M17.6667 26V15.4734C17.6667 15.1244 17.5203 14.7897 17.2599 14.543C16.9994 14.2962 16.6461 14.1576 16.2778 14.1576H10.7222C10.3539 14.1576 10.0006 14.2962 9.74013 14.543C9.47966 14.7897 9.33333 15.1244 9.33333 15.4734V26M1 11.5259C0.999903 11.1431 1.08796 10.7649 1.25804 10.4176C1.42811 10.0704 1.67611 9.76245 1.98472 9.51534L11.7069 1.6217C12.2083 1.22025 12.8436 1 13.5 1C14.1564 1 14.7917 1.22025 15.2931 1.6217L25.0153 9.51534C25.3239 9.76245 25.5719 10.0704 25.742 10.4176C25.912 10.7649 26.0001 11.1431 26 11.5259V23.3683C26 24.0663 25.7073 24.7357 25.1864 25.2292C24.6655 25.7227 23.9589 26 23.2222 26H3.77778C3.04107 26 2.33453 25.7227 1.81359 25.2292C1.29266 24.7357 1 24.0663 1 23.3683V11.5259Z" stroke="#BC804D" stroke-width="2" stroke-linecap="round" stroke-linejoin="round"/>
</svg>
