<svg width="40" height="41" viewBox="0 0 40 41" fill="none" xmlns="http://www.w3.org/2000/svg">
<path d="M20 4.19455V7.52788" stroke="#BC804D" stroke-width="3.75" stroke-linecap="round"/>
<path d="M20 34.1945V37.5279" stroke="#BC804D" stroke-width="3.75" stroke-linecap="round"/>
<path d="M3.33331 20.8612H6.66665" stroke="#BC804D" stroke-width="3.75" stroke-linecap="round"/>
<path d="M33.3333 20.8612H36.6666" stroke="#BC804D" stroke-width="3.75" stroke-linecap="round"/>
<path d="M10 30.8612L10.5717 30.2896" stroke="#BC804D" stroke-width="3.75" stroke-linecap="round"/>
<path d="M29.4279 11.4333L30 10.8612" stroke="#BC804D" stroke-width="3.75" stroke-linecap="round"/>
<path d="M30 30.8612L29.4283 30.2896" stroke="#BC804D" stroke-width="3.75" stroke-linecap="round"/>
<path d="M10.5721 11.4333L10 10.8612" stroke="#BC804D" stroke-width="3.75" stroke-linecap="round"/>
<path d="M12.0833 19.8272C12.0833 20.5175 12.643 21.0772 13.3333 21.0772C14.0237 21.0772 14.5833 20.5175 14.5833 19.8272H12.0833ZM20 17.3628L19.0923 18.2222C19.3283 18.4716 19.6566 18.6129 20 18.6129C20.3433 18.6129 20.6716 18.4716 20.9076 18.2222L20 17.3628ZM17.1515 24.1972C16.6219 23.7542 15.8336 23.8244 15.3906 24.3539C14.9476 24.8834 15.0177 25.6717 15.5472 26.1147L17.1515 24.1972ZM14.5833 19.8272C14.5833 18.6357 15.2445 17.6876 16.0684 17.3046C16.8078 16.9611 17.9101 16.9736 19.0923 18.2222L20.9076 16.5034C19.09 14.5836 16.859 14.1806 15.0149 15.0374C13.2555 15.855 12.0833 17.723 12.0833 19.8272H14.5833ZM17.1928 27.4264C17.5273 27.6944 17.9341 28.0201 18.3585 28.2721C18.7816 28.5236 19.3441 28.7779 20 28.7779V26.2779C19.9891 26.2779 19.885 26.2711 19.6351 26.1227C19.3863 25.9749 19.1138 25.7622 18.7561 25.4756L17.1928 27.4264ZM22.8071 27.4264C23.7143 26.6994 25.0123 25.7649 26.023 24.6079C27.0765 23.4021 27.9166 21.8584 27.9166 19.8272H25.4166C25.4166 21.0917 24.917 22.0739 24.1403 22.9631C23.3208 23.9011 22.2983 24.6306 21.2438 25.4756L22.8071 27.4264ZM27.9166 19.8272C27.9166 17.723 26.7445 15.855 24.985 15.0374C23.141 14.1806 20.91 14.5836 19.0923 16.5034L20.9076 18.2222C22.0898 16.9736 23.1921 16.9611 23.9315 17.3046C24.7555 17.6876 25.4166 18.6357 25.4166 19.8272H27.9166ZM21.2438 25.4756C20.8861 25.7622 20.6136 25.9749 20.3648 26.1227C20.115 26.2711 20.0108 26.2779 20 26.2779V28.7779C20.6558 28.7779 21.2183 28.5236 21.6415 28.2721C22.0658 28.0201 22.4726 27.6944 22.8071 27.4264L21.2438 25.4756ZM18.7561 25.4756C18.199 25.0291 17.6938 24.6511 17.1515 24.1972L15.5472 26.1147C16.1055 26.5817 16.7241 27.0509 17.1928 27.4264L18.7561 25.4756Z" fill="#BC804D"/>
</svg>
