<svg width="18" height="20" viewBox="0 0 18 20" fill="none" xmlns="http://www.w3.org/2000/svg">
<g clip-path="url(#clip0_17_78)">
<path d="M17.8119 4.12021L14.5976 0.72804C14.3466 0.463171 13.9396 0.463171 13.6886 0.72804L12.2145 2.2837L10.7404 0.72804C10.4894 0.463171 10.0824 0.463171 9.83142 0.72804L5.33137 5.4771C5.07598 5.7374 5.0689 6.16692 5.31559 6.4364C5.56223 6.70592 5.9692 6.71339 6.22458 6.45306C6.22993 6.44761 6.2352 6.44205 6.24037 6.4364L10.2859 2.16699L11.3055 3.243L0.831359 14.2967C0.736662 14.3968 0.673946 14.5256 0.651985 14.6651L0.00911068 18.7357C-0.0491236 19.1054 0.187618 19.4548 0.537852 19.5163C0.572582 19.5224 0.607763 19.5255 0.642983 19.5255C0.678541 19.5253 0.713986 19.5221 0.749055 19.516L4.60623 18.8375C4.73821 18.8142 4.85999 18.7481 4.95465 18.6482L17.8119 5.0795C18.0629 4.81459 18.0629 4.38515 17.8119 4.12021ZM4.19158 17.5349L1.42726 18.0214L1.88884 15.1041L7.07158 9.62977L9.37688 12.0626L4.19158 17.5349ZM10.2859 11.1033L7.98061 8.67047L14.1431 2.16699L16.4484 4.59985L10.2859 11.1033Z" fill="#BC804D"/>
</g>
<defs>
<clipPath id="clip0_17_78">
<rect width="18" height="18.9961" fill="white" transform="translate(0 0.529419)"/>
</clipPath>
</defs>
</svg>
