<svg width="27" height="27" viewBox="0 0 27 27" fill="none" xmlns="http://www.w3.org/2000/svg">
<g clip-path="url(#clip0_19_228)">
<path d="M26.9682 5.55419C26.9295 5.46582 26.9074 5.35537 26.8853 5.24491C26.8246 4.9522 26.7583 4.62635 26.6092 4.29498C25.7807 2.40616 24.4111 1.0641 22.5388 0.30747C22.1356 0.141784 21.7325 0.0920787 21.379 0.0534187L21.2907 0.0423729C20.882 -0.00733282 20.2744 0.0478958 19.7056 0.627796C17.2921 3.05233 14.8344 5.51001 12.4541 7.89036L10.7088 9.63006C10.3167 10.0222 10.1566 10.1823 10.0737 10.2652C9.99087 10.348 9.99087 10.348 9.9246 10.4143C9.8528 10.4861 9.70369 10.6407 9.2729 11.0771C8.8863 11.4692 8.89183 12.0988 9.28395 12.4854C9.67607 12.872 10.3057 12.8665 10.6923 12.4743C11.1286 12.0325 11.2777 11.8779 11.3495 11.8061C11.4102 11.7453 11.4102 11.7453 11.482 11.6735C11.5649 11.5907 11.7251 11.4305 12.1172 11.0384L13.8624 9.29317C16.2428 6.91281 18.7004 4.45514 21.1194 2.02508L21.125 2.01956H21.1415C21.3956 2.05269 21.6386 2.08031 21.7988 2.14658C23.196 2.70992 24.1736 3.67642 24.7977 5.09027C24.8584 5.23386 24.9026 5.43269 24.9468 5.64808C24.9578 5.70331 24.9689 5.75301 24.9799 5.80824C24.9744 5.81376 24.9689 5.81929 24.9578 5.83033C20.9814 9.79575 16.8447 13.9324 12.2994 18.4832C12.2773 18.5053 12.2773 18.5053 12.2387 18.5163C10.7144 18.8367 9.16797 19.1625 7.6768 19.4773L7.43931 19.527L7.4835 19.3227C7.80382 17.8039 8.13519 16.2354 8.47209 14.6945C8.58807 14.1588 8.25117 13.6286 7.71546 13.5126C7.17974 13.3967 6.64954 13.7335 6.53356 14.2693C6.19667 15.8157 5.8653 17.3897 5.54497 18.914L5.36272 19.7756C5.25226 20.3058 5.40138 20.8415 5.76589 21.206C6.05307 21.4932 6.43967 21.6478 6.85389 21.6478C6.96987 21.6478 7.08585 21.6368 7.20183 21.6091L8.10206 21.4214C9.59875 21.1066 11.1396 20.7807 12.6584 20.4604C13.0782 20.372 13.4261 20.1842 13.7188 19.886C18.2586 15.3352 22.4007 11.1986 26.3717 7.23314C26.7417 6.86311 26.9461 6.42128 26.9958 5.89108C27.0068 5.78063 26.9958 5.66465 26.9682 5.55419Z" fill="#BC804D"/>
<path d="M21.4121 14.5675C20.8654 14.5675 20.418 15.0148 20.418 15.5616V24.5473C20.418 24.7903 20.2247 24.9836 19.9817 24.9836H2.42454C2.18153 24.9836 1.98823 24.7903 1.98823 24.5473V6.99012C1.98823 6.74711 2.18153 6.55381 2.42454 6.55381H11.7913C12.3381 6.55381 12.7854 6.10646 12.7854 5.5597C12.7854 5.01293 12.3381 4.56558 11.7913 4.56558H2.42454C1.088 4.56558 0 5.65359 0 6.99012V24.5473C0 25.8838 1.088 26.9718 2.42454 26.9718H19.9817C21.3182 26.9718 22.4062 25.8838 22.4062 24.5473V15.5616C22.4062 15.0148 21.9589 14.5675 21.4121 14.5675Z" fill="#BC804D"/>
</g>
<defs>
<clipPath id="clip0_19_228">
<rect width="27" height="27" fill="white"/>
</clipPath>
</defs>
</svg>
