<svg width="27" height="27" viewBox="0 0 27 27" fill="none" xmlns="http://www.w3.org/2000/svg">
<path d="M0 21.951C0 23.355 0.495 24.543 1.485 25.515C2.475 26.487 3.672 26.982 5.076 27H21.951C23.337 27 24.525 26.505 25.515 25.515C26.505 24.525 27 23.337 27 21.951V5.076C27 3.672 26.505 2.475 25.515 1.485C24.525 0.495 23.337 0 21.951 0H5.076C3.672 0 2.475 0.495 1.485 1.485C0.495 2.475 0 3.672 0 5.076V9.288L3.375 7.182V5.076C3.375 4.608 3.537 4.212 3.861 3.888C4.185 3.564 4.59 3.393 5.076 3.375H21.951C22.401 3.375 22.797 3.546 23.139 3.888C23.481 4.23 23.643 4.626 23.625 5.076V21.951C23.625 22.419 23.463 22.815 23.139 23.139C22.815 23.463 22.419 23.625 21.951 23.625H5.076C4.608 23.625 4.203 23.463 3.861 23.139C3.519 22.815 3.357 22.419 3.375 21.951V19.845L0 17.739L0 21.951ZM0 13.5L6.75 18.576V15.201H13.5V11.826H6.75V8.451L0 13.5Z" fill="#BC804D" fill-opacity="0.5"/>
<path d="M5.076 2.875H5.06674L5.05749 2.87534C4.45387 2.8977 3.92652 3.11537 3.50745 3.53445C3.08746 3.95444 2.875 4.47857 2.875 5.076V6.90464L0.5 8.38664V5.076C0.5 3.80419 0.942617 2.73449 1.83855 1.83855C2.73449 0.942617 3.80419 0.5 5.076 0.5H21.951C23.2029 0.5 24.2641 0.941251 25.1614 1.83855C26.0574 2.73449 26.5 3.80419 26.5 5.076V21.951C26.5 23.2029 26.0587 24.2641 25.1614 25.1614C24.2641 26.0587 23.2029 26.5 21.951 26.5H5.07921C3.80367 26.4829 2.73141 26.038 1.8353 25.1582C0.942337 24.2815 0.5 23.2226 0.5 21.951V18.6404L2.875 20.1224V21.942C2.85424 22.5506 3.07378 23.082 3.51713 23.502C3.95131 23.9133 4.47912 24.125 5.076 24.125H21.951C22.5484 24.125 23.0726 23.9125 23.4926 23.4926C23.9125 23.0726 24.125 22.5484 24.125 21.951V5.08538C24.146 4.48918 23.9225 3.9644 23.4926 3.53445C23.0645 3.10643 22.5442 2.875 21.951 2.875H5.076ZM6.75 14.701H6.25V15.201V17.5744L0.833334 13.5011L6.25 9.4494V11.826V12.326H6.75H13V14.701H6.75Z" stroke="#BC804D" stroke-opacity="0.5"/>
</svg>
